<svg width="24" height="24" viewBox="0 0 24 24" fill="none" xmlns="http://www.w3.org/2000/svg">
<path fill-rule="evenodd" clip-rule="evenodd" d="M4.73171 3.54349C5.94904 2.33307 7.95341 2.54853 8.97273 3.91011L10.2337 5.59451C11.0631 6.7024 10.9899 8.25081 10.0054 9.22972L9.76664 9.46714C9.75621 9.49743 9.73092 9.59264 9.759 9.77359C9.82221 10.1811 10.1625 11.0455 11.591 12.4659C13.019 13.8858 13.8896 14.2258 14.3028 14.2891C14.4901 14.3179 14.5881 14.2911 14.6184 14.2805L15.0264 13.8748C15.9016 13.0046 17.2465 12.8419 18.3301 13.431L20.2406 14.4696C21.8766 15.3589 22.2899 17.5826 20.9496 18.9153L19.529 20.3278C19.0814 20.7728 18.4795 21.1439 17.745 21.2124C15.9359 21.381 11.7177 21.1658 7.28562 16.7589C3.1477 12.6445 2.35364 9.05649 2.25317 7.28866L3.00196 7.24611L2.25317 7.28866C2.20237 6.39475 2.62479 5.63845 3.16211 5.10418L4.73171 3.54349ZM7.77193 4.80905C7.26531 4.13231 6.32103 4.0785 5.78934 4.60717L4.21974 6.16786C3.88982 6.4959 3.73108 6.85744 3.75075 7.20355C3.83058 8.60815 4.47188 11.8458 8.34325 15.6952C12.4047 19.7336 16.1559 19.854 17.6057 19.7189C17.902 19.6913 18.1966 19.5374 18.4714 19.2641L19.8919 17.8516C20.4694 17.2775 20.342 16.232 19.5242 15.7874L17.6137 14.7488C17.0861 14.4621 16.4681 14.5567 16.0841 14.9385L15.6286 15.3914L15.0998 14.8595C15.6286 15.3914 15.6279 15.3921 15.6272 15.3928L15.6257 15.3942L15.6227 15.3972L15.6162 15.4035L15.6015 15.4171C15.591 15.4267 15.579 15.4372 15.5654 15.4484C15.5382 15.4709 15.5048 15.4964 15.4649 15.5232C15.3848 15.5768 15.2791 15.6351 15.1463 15.6846C14.8754 15.7855 14.5182 15.8397 14.0754 15.7718C13.2086 15.6388 12.0604 15.0479 10.5334 13.5296C9.0069 12.0118 8.41097 10.8688 8.27673 10.0035C8.20808 9.5611 8.26283 9.2038 8.36496 8.93274C8.41501 8.7999 8.474 8.69427 8.52813 8.61438C8.55512 8.57454 8.58082 8.54123 8.60349 8.51417C8.61482 8.50064 8.62542 8.48866 8.63506 8.47819L8.64879 8.4636L8.65508 8.45714L8.65807 8.45412L8.65953 8.45266C8.66025 8.45194 8.66096 8.45123 9.18978 8.98307L8.66096 8.45123L8.94778 8.16605C9.37638 7.73988 9.43641 7.03243 9.03292 6.49346L7.77193 4.80905Z" fill="#1D1D1B"/>
</svg>
